<svg width="232" height="90" viewBox="0 0 312 122" version="1.1" xmlns="http://www.w3.org/2000/svg" xmlns:xlink="http://www.w3.org/1999/xlink" xml:space="preserve" style="fill-rule:evenodd;clip-rule:evenodd;stroke-linejoin:round;stroke-miterlimit:1.41421;"><rect id="Artboard1" x="0" y="0" width="311.942" height="121.409" style="fill:none;"></rect><clipPath id="_clip1"><rect x="0" y="0" width="311.942" height="121.409"></rect></clipPath><g clip-path="url(#_clip1)"><path d="M134.174,59.032c-3.264,1.531 -8.568,2.551 -13.668,2.551c-15.096,0 -23.97,-9.69 -23.97,-24.787c0,-16.523 10.098,-25.296 24.072,-25.296c5.712,0 10.2,1.225 13.464,2.653l2.754,-9.996c-2.55,-1.327 -8.466,-3.06 -16.728,-3.06c-21.012,0 -36.72,13.668 -36.72,36.311c0,20.911 13.26,34.579 35.088,34.579c8.262,0 14.79,-1.531 17.748,-3.06l-2.04,-9.895Zm14.79,11.934l12.546,0l0,-68.748l-12.546,0l0,68.748Zm28.967,0l12.546,0l0,-68.748l-12.546,0l0,68.748Zm25.907,-3.264c3.774,2.244 11.321,4.285 18.564,4.285c17.748,0 26.112,-9.588 26.112,-20.605c0,-9.893 -5.814,-15.912 -17.748,-20.399c-9.18,-3.571 -13.157,-6.019 -13.157,-11.323c0,-3.977 3.466,-8.261 11.423,-8.261c6.426,0 11.22,1.937 13.668,3.263l3.06,-10.097c-3.57,-1.836 -9.078,-3.468 -16.524,-3.468c-14.892,0 -24.276,8.567 -24.276,19.787c0,9.895 7.242,15.912 18.565,19.992c8.771,3.162 12.239,6.223 12.239,11.424c0,5.611 -4.487,9.384 -12.546,9.384c-6.426,0 -12.546,-2.039 -16.626,-4.386l-2.754,10.404Zm58.038,3.06c3.162,0.409 8.466,0.918 15.402,0.918c12.545,0 20.604,-2.142 25.5,-6.425c3.978,-3.264 6.629,-8.058 6.629,-14.179c0,-9.486 -6.629,-15.198 -13.871,-17.034l0,-0.204c7.446,-2.754 11.424,-8.567 11.424,-14.891c0,-5.815 -2.856,-10.302 -7.14,-12.853c-4.692,-3.264 -10.405,-4.386 -19.686,-4.386c-7.038,0 -14.28,0.613 -18.258,1.428l0,67.626Zm12.444,-59.262c1.326,-0.305 3.468,-0.51 7.14,-0.51c7.955,0 12.852,2.959 12.852,9.384c0,5.815 -4.897,9.895 -13.567,9.895l-6.425,0l0,-18.769Zm0,27.949l6.222,0c8.67,0 15.606,3.263 15.606,11.219c0,8.466 -7.14,11.526 -15.198,11.526c-2.856,0 -4.998,-0.101 -6.63,-0.305l0,-22.44Z" style="fill:#878787;fill-rule:nonzero;"></path><path d="M91.439,111.852c0.54,0.357 1.603,0.643 2.579,0.643c2.386,0 3.539,-1.348 3.539,-2.909c0,-1.484 -0.869,-2.31 -2.579,-2.97c-1.396,-0.539 -2.011,-1.006 -2.011,-1.951c0,-0.69 0.525,-1.514 1.906,-1.514c0.916,0 1.591,0.299 1.92,0.48l0.36,-1.064c-0.45,-0.256 -1.199,-0.494 -2.235,-0.494c-1.966,0 -3.269,1.168 -3.269,2.742c0,1.426 1.019,2.281 2.669,2.867c1.366,0.524 1.906,1.065 1.906,2.01c0,1.021 -0.78,1.724 -2.116,1.724c-0.901,0 -1.755,-0.298 -2.339,-0.658l-0.33,1.094Zm8.115,-8.504l0,1.74l-1.125,0l0,1.002l1.125,0l0,3.961c0,0.856 0.135,1.502 0.509,1.891c0.315,0.359 0.809,0.553 1.424,0.553c0.51,0 0.915,-0.075 1.17,-0.18l-0.06,-0.988c-0.165,0.045 -0.42,0.089 -0.765,0.089c-0.735,0 -0.99,-0.509 -0.99,-1.41l0,-3.916l1.89,0l0,-1.002l-1.89,0l0,-2.086l-1.288,0.346Zm4.665,8.998l1.303,0l0,-3.871c0,-0.225 0.03,-0.436 0.06,-0.615c0.18,-0.99 0.84,-1.695 1.77,-1.695c0.18,0 0.315,0.015 0.45,0.044l0,-1.242c-0.12,-0.029 -0.225,-0.045 -0.375,-0.045c-0.885,0 -1.68,0.614 -2.01,1.588l-0.06,0l-0.045,-1.422l-1.153,0c0.045,0.674 0.06,1.409 0.06,2.264l0,4.994Zm10.978,-7.258l-1.318,0l0,4.453c0,0.241 -0.045,0.481 -0.12,0.676c-0.24,0.586 -0.856,1.199 -1.741,1.199c-1.201,0 -1.621,-0.929 -1.621,-2.308l0,-4.02l-1.318,0l0,4.244c0,2.549 1.363,3.178 2.504,3.178c1.29,0 2.056,-0.763 2.401,-1.347l0.03,0l0.075,1.183l1.168,0c-0.045,-0.57 -0.06,-1.23 -0.06,-1.98l0,-5.278Zm7.14,6c-0.375,0.164 -0.87,0.36 -1.62,0.36c-1.44,0 -2.52,-1.037 -2.52,-2.717c0,-1.516 0.9,-2.746 2.565,-2.746c0.72,0 1.215,0.166 1.53,0.346l0.3,-1.02c-0.36,-0.18 -1.05,-0.373 -1.83,-0.373c-2.37,0 -3.898,1.617 -3.898,3.853c0,2.221 1.423,3.704 3.613,3.704c0.975,0 1.74,-0.239 2.085,-0.418l-0.225,-0.989Zm2.267,-7.74l0,1.74l-1.125,0l0,1.002l1.125,0l0,3.961c0,0.856 0.134,1.502 0.509,1.891c0.314,0.359 0.809,0.553 1.424,0.553c0.51,0 0.915,-0.075 1.17,-0.18l-0.06,-0.988c-0.165,0.045 -0.42,0.089 -0.765,0.089c-0.735,0 -0.99,-0.509 -0.99,-1.41l0,-3.916l1.89,0l0,-1.002l-1.89,0l0,-2.086l-1.288,0.346Zm10.738,1.74l-1.318,0l0,4.453c0,0.241 -0.046,0.481 -0.121,0.676c-0.24,0.586 -0.855,1.199 -1.741,1.199c-1.2,0 -1.62,-0.929 -1.62,-2.308l0,-4.02l-1.318,0l0,4.244c0,2.549 1.363,3.178 2.503,3.178c1.291,0 2.056,-0.763 2.401,-1.347l0.03,0l0.075,1.183l1.169,0c-0.045,-0.57 -0.06,-1.23 -0.06,-1.98l0,-5.278Zm2.191,7.258l1.304,0l0,-3.871c0,-0.225 0.03,-0.436 0.06,-0.615c0.18,-0.99 0.84,-1.695 1.77,-1.695c0.18,0 0.315,0.015 0.45,0.044l0,-1.242c-0.12,-0.029 -0.225,-0.045 -0.375,-0.045c-0.885,0 -1.68,0.614 -2.01,1.588l-0.06,0l-0.045,-1.422l-1.154,0c0.045,0.674 0.06,1.409 0.06,2.264l0,4.994Zm10.049,0c-0.09,-0.496 -0.12,-1.111 -0.12,-1.74l0,-2.715c0,-1.455 -0.54,-2.969 -2.759,-2.969c-0.916,0 -1.786,0.254 -2.385,0.645l0.299,0.869c0.51,-0.33 1.215,-0.541 1.89,-0.541c1.486,0 1.651,1.082 1.651,1.682l0,0.15c-2.806,-0.014 -4.364,0.943 -4.364,2.699c0,1.051 0.748,2.084 2.218,2.084c1.036,0 1.816,-0.51 2.221,-1.078l0.045,0l0.105,0.914l1.199,0Zm-1.393,-2.445c0,0.135 -0.031,0.285 -0.076,0.42c-0.21,0.615 -0.81,1.217 -1.756,1.217c-0.675,0 -1.245,-0.407 -1.245,-1.262c0,-1.41 1.636,-1.666 3.077,-1.635l0,1.26Zm3.404,2.445l1.318,0l0,-10.648l-1.318,0l0,10.648Zm6.765,-0.031c0.435,0.06 1.123,0.121 2.024,0.121c1.65,0 2.791,-0.301 3.495,-0.943c0.511,-0.496 0.854,-1.157 0.854,-2.026c0,-1.502 -1.123,-2.295 -2.084,-2.535l0,-0.031c1.065,-0.389 1.709,-1.244 1.709,-2.219c0,-0.797 -0.314,-1.396 -0.837,-1.787c-0.631,-0.508 -1.471,-0.732 -2.777,-0.732c-0.916,0 -1.815,0.089 -2.384,0.209l0,9.943Zm1.303,-9.059c0.21,-0.047 0.556,-0.092 1.156,-0.092c1.321,0 2.221,0.467 2.221,1.653c0,0.974 -0.81,1.695 -2.191,1.695l-1.186,0l0,-3.256Zm0,4.244l1.081,0c1.426,0 2.611,0.571 2.611,1.952c0,1.47 -1.245,1.964 -2.596,1.964c-0.465,0 -0.841,-0.013 -1.096,-0.058l0,-3.858Zm8.1,-2.412l-1.318,0l0,7.258l1.318,0l0,-7.258Zm-0.658,-2.865c-0.48,0 -0.825,0.358 -0.825,0.824c0,0.448 0.33,0.809 0.793,0.809c0.526,0 0.855,-0.361 0.84,-0.809c0,-0.466 -0.314,-0.824 -0.808,-0.824m5.923,2.699c-2.009,0 -3.597,1.424 -3.597,3.854c0,2.297 1.511,3.734 3.478,3.734c1.756,0 3.614,-1.168 3.614,-3.853c0,-2.221 -1.409,-3.735 -3.495,-3.735m-0.029,0.989c1.561,0 2.176,1.56 2.176,2.791c0,1.634 -0.945,2.82 -2.206,2.82c-1.291,0 -2.206,-1.201 -2.206,-2.791c0,-1.381 0.676,-2.82 2.236,-2.82m5.192,6.435l1.317,0l0,-10.648l-1.317,0l0,10.648Zm6.613,-7.424c-2.011,0 -3.599,1.424 -3.599,3.854c0,2.297 1.513,3.734 3.48,3.734c1.756,0 3.613,-1.168 3.613,-3.853c0,-2.221 -1.408,-3.735 -3.494,-3.735m-0.03,0.989c1.561,0 2.176,1.56 2.176,2.791c0,1.634 -0.946,2.82 -2.206,2.82c-1.291,0 -2.206,-1.201 -2.206,-2.791c0,-1.381 0.675,-2.82 2.236,-2.82m10.29,-0.823l-0.059,1.092l-0.029,0c-0.316,-0.599 -1.007,-1.258 -2.267,-1.258c-1.666,0 -3.268,1.393 -3.268,3.854c0,2.012 1.287,3.539 3.087,3.539c1.125,0 1.907,-0.539 2.312,-1.213l0.03,0l0,0.809c0,1.83 -0.991,2.537 -2.342,2.537c-0.9,0 -1.65,-0.27 -2.13,-0.573l-0.329,1.006c0.584,0.389 1.543,0.6 2.414,0.6c0.916,0 1.937,-0.211 2.641,-0.869c0.704,-0.631 1.034,-1.653 1.034,-3.315l0,-4.216c0,-0.883 0.031,-1.469 0.06,-1.993l-1.154,0Zm-0.209,4.17c0,0.225 -0.03,0.479 -0.105,0.705c-0.285,0.84 -1.02,1.35 -1.831,1.35c-1.426,0 -2.146,-1.186 -2.146,-2.611c0,-1.682 0.9,-2.746 2.162,-2.746c0.959,0 1.605,0.628 1.845,1.394c0.06,0.18 0.075,0.375 0.075,0.602l0,1.306Zm2.535,-4.17l2.683,6.69c0.061,0.164 0.091,0.269 0.091,0.344c0,0.076 -0.045,0.181 -0.104,0.316c-0.301,0.674 -0.75,1.184 -1.112,1.469c-0.388,0.33 -0.824,0.541 -1.154,0.646l0.33,1.11c0.33,-0.061 0.975,-0.286 1.62,-0.856c0.9,-0.779 1.545,-2.055 2.489,-4.545l1.98,-5.174l-1.396,0l-1.439,4.26c-0.18,0.524 -0.329,1.08 -0.464,1.514l-0.03,0c-0.119,-0.434 -0.3,-1.004 -0.465,-1.485l-1.59,-4.289l-1.439,0Z" style="fill:#1d1d1b;fill-rule:nonzero;"></path><path d="M98.743,92.983c-0.525,0.254 -1.335,0.42 -2.13,0.42c-2.46,0 -3.885,-1.59 -3.885,-4.066c0,-2.657 1.575,-4.172 3.945,-4.172c0.84,0 1.545,0.179 2.04,0.42l0.315,-1.063c-0.345,-0.18 -1.14,-0.449 -2.4,-0.449c-3.135,0 -5.278,2.142 -5.278,5.308c0,3.317 2.143,5.114 4.993,5.114c1.23,0 2.19,-0.239 2.67,-0.479l-0.27,-1.033Zm1.097,1.361l5.893,0l0,-1.047l-4.244,0l0,-0.031c0.33,-0.375 0.63,-0.734 0.93,-1.138l3.239,-4.217l0.015,-0.824l-5.533,0l0,1.064l3.928,0l0,0.029c-0.33,0.391 -0.63,0.737 -0.944,1.125l-3.284,4.278l0,0.761Zm12.973,-3.388c0.015,-0.135 0.045,-0.344 0.045,-0.616c0,-1.334 -0.629,-3.418 -2.999,-3.418c-2.116,0 -3.404,1.725 -3.404,3.913c0,2.193 1.333,3.66 3.569,3.66c1.156,0 1.95,-0.239 2.414,-0.45l-0.224,-0.943c-0.494,0.211 -1.064,0.375 -2.01,0.375c-1.321,0 -2.461,-0.734 -2.491,-2.521l5.1,0Zm-5.085,-0.944c0.105,-0.916 0.69,-2.146 2.026,-2.146c1.486,0 1.846,1.304 1.831,2.146l-3.857,0Zm11.715,3.075c-0.375,0.166 -0.87,0.361 -1.62,0.361c-1.44,0 -2.52,-1.035 -2.52,-2.717c0,-1.516 0.9,-2.746 2.565,-2.746c0.72,0 1.215,0.166 1.53,0.346l0.3,-1.02c-0.36,-0.18 -1.05,-0.375 -1.83,-0.375c-2.37,0 -3.898,1.619 -3.898,3.856c0,2.22 1.423,3.703 3.613,3.703c0.975,0 1.74,-0.239 2.085,-0.418l-0.225,-0.99Zm1.772,1.257l1.318,0l0,-4.379c0,-0.255 0.015,-0.451 0.09,-0.63c0.24,-0.719 0.915,-1.321 1.771,-1.321c1.245,0 1.681,0.99 1.681,2.16l0,4.17l1.318,0l0,-4.318c0,-2.504 -1.559,-3.104 -2.534,-3.104c-0.495,0 -0.961,0.151 -1.351,0.374c-0.405,0.226 -0.735,0.554 -0.945,0.929l-0.03,0l0,-4.527l-1.318,0l0,10.646Zm11.549,0l1.303,0l0,-10.107l-1.303,0l0,10.107Zm3.69,0l1.318,0l0,-4.363c0,-0.227 0.03,-0.451 0.09,-0.615c0.225,-0.737 0.901,-1.352 1.771,-1.352c1.246,0 1.681,0.977 1.681,2.147l0,4.183l1.318,0l0,-4.334c0,-2.488 -1.558,-3.088 -2.563,-3.088c-1.201,0 -2.042,0.674 -2.402,1.364l-0.029,0l-0.075,-1.199l-1.169,0c0.045,0.599 0.06,1.214 0.06,1.964l0,5.293Zm9.763,0l0,-6.254l1.755,0l0,-1.003l-1.755,0l0,-0.389c0,-1.111 0.285,-2.104 1.41,-2.104c0.375,0 0.645,0.076 0.84,0.166l0.18,-1.017c-0.255,-0.106 -0.66,-0.211 -1.125,-0.211c-0.615,0 -1.275,0.195 -1.769,0.674c-0.614,0.584 -0.839,1.515 -0.839,2.537l0,0.344l-1.02,0l0,1.003l1.02,0l0,6.254l1.303,0Zm2.942,0l1.304,0l0,-3.869c0,-0.224 0.029,-0.435 0.058,-0.615c0.181,-0.99 0.841,-1.695 1.771,-1.695c0.18,0 0.315,0.015 0.45,0.045l0,-1.243c-0.12,-0.031 -0.225,-0.045 -0.375,-0.045c-0.885,0 -1.68,0.614 -2.01,1.588l-0.06,0l-0.045,-1.423l-1.153,0c0.045,0.675 0.06,1.41 0.06,2.265l0,4.992Zm10.048,0c-0.09,-0.494 -0.119,-1.109 -0.119,-1.738l0,-2.715c0,-1.455 -0.539,-2.969 -2.76,-2.969c-0.915,0 -1.786,0.254 -2.385,0.645l0.3,0.869c0.509,-0.33 1.215,-0.541 1.89,-0.541c1.486,0 1.651,1.08 1.651,1.682l0,0.15c-2.808,-0.015 -4.365,0.943 -4.365,2.697c0,1.053 0.749,2.086 2.22,2.086c1.035,0 1.815,-0.509 2.22,-1.078l0.045,0l0.106,0.912l1.197,0Zm-1.393,-2.443c0,0.135 -0.03,0.285 -0.075,0.42c-0.21,0.617 -0.809,1.217 -1.756,1.217c-0.675,0 -1.246,-0.407 -1.246,-1.262c0,-1.41 1.636,-1.666 3.077,-1.637l0,1.262Zm2.895,2.1c0.51,0.3 1.243,0.494 2.039,0.494c1.726,0 2.715,-0.899 2.715,-2.172c0,-1.082 -0.645,-1.711 -1.905,-2.192c-0.945,-0.359 -1.38,-0.63 -1.38,-1.23c0,-0.541 0.435,-0.99 1.214,-0.99c0.677,0 1.202,0.24 1.487,0.42l0.328,-0.959c-0.404,-0.241 -1.048,-0.45 -1.783,-0.45c-1.561,0 -2.505,0.957 -2.505,2.129c0,0.869 0.614,1.59 1.919,2.055c0.976,0.359 1.351,0.707 1.351,1.336c0,0.6 -0.45,1.08 -1.411,1.08c-0.661,0 -1.35,-0.269 -1.739,-0.525l-0.33,1.004Zm6.75,-8.655l0,1.741l-1.125,0l0,1.003l1.125,0l0,3.961c0,0.856 0.135,1.5 0.51,1.891c0.314,0.359 0.808,0.553 1.423,0.553c0.51,0 0.914,-0.075 1.17,-0.178l-0.06,-0.99c-0.164,0.045 -0.42,0.09 -0.765,0.09c-0.735,0 -0.99,-0.51 -0.99,-1.411l0,-3.916l1.89,0l0,-1.003l-1.89,0l0,-2.084l-1.288,0.343Zm4.665,8.998l1.304,0l0,-3.869c0,-0.224 0.029,-0.435 0.059,-0.615c0.18,-0.99 0.84,-1.695 1.771,-1.695c0.179,0 0.314,0.015 0.449,0.045l0,-1.243c-0.119,-0.031 -0.225,-0.045 -0.375,-0.045c-0.885,0 -1.68,0.614 -2.01,1.588l-0.06,0l-0.045,-1.423l-1.153,0c0.045,0.675 0.06,1.41 0.06,2.265l0,4.992Zm10.977,-7.257l-1.317,0l0,4.455c0,0.24 -0.045,0.48 -0.12,0.675c-0.24,0.584 -0.856,1.2 -1.74,1.2c-1.202,0 -1.621,-0.93 -1.621,-2.309l0,-4.021l-1.319,0l0,4.246c0,2.548 1.363,3.177 2.504,3.177c1.29,0 2.056,-0.763 2.401,-1.347l0.03,0l0.074,1.181l1.169,0c-0.045,-0.568 -0.061,-1.228 -0.061,-1.978l0,-5.279Zm7.141,6c-0.375,0.166 -0.87,0.361 -1.62,0.361c-1.441,0 -2.521,-1.035 -2.521,-2.717c0,-1.516 0.901,-2.746 2.566,-2.746c0.72,0 1.216,0.166 1.53,0.346l0.3,-1.02c-0.36,-0.18 -1.05,-0.375 -1.83,-0.375c-2.37,0 -3.898,1.619 -3.898,3.856c0,2.22 1.423,3.703 3.614,3.703c0.974,0 1.739,-0.239 2.084,-0.418l-0.225,-0.99Zm2.266,-7.741l0,1.741l-1.125,0l0,1.003l1.125,0l0,3.961c0,0.856 0.134,1.5 0.509,1.891c0.315,0.359 0.81,0.553 1.425,0.553c0.51,0 0.915,-0.075 1.17,-0.178l-0.059,-0.99c-0.166,0.045 -0.42,0.09 -0.766,0.09c-0.734,0 -0.99,-0.51 -0.99,-1.411l0,-3.916l1.89,0l0,-1.003l-1.89,0l0,-2.084l-1.289,0.343Zm10.738,1.741l-1.318,0l0,4.455c0,0.24 -0.045,0.48 -0.12,0.675c-0.24,0.584 -0.855,1.2 -1.741,1.2c-1.2,0 -1.621,-0.93 -1.621,-2.309l0,-4.021l-1.317,0l0,4.246c0,2.548 1.362,3.177 2.504,3.177c1.291,0 2.054,-0.763 2.4,-1.347l0.029,0l0.077,1.181l1.167,0c-0.044,-0.568 -0.06,-1.228 -0.06,-1.978l0,-5.279Zm2.191,7.257l1.304,0l0,-3.869c0,-0.224 0.03,-0.435 0.06,-0.615c0.179,-0.99 0.839,-1.695 1.77,-1.695c0.18,0 0.316,0.015 0.45,0.045l0,-1.243c-0.12,-0.031 -0.224,-0.045 -0.375,-0.045c-0.884,0 -1.679,0.614 -2.009,1.588l-0.06,0l-0.045,-1.423l-1.153,0c0.045,0.675 0.058,1.41 0.058,2.265l0,4.992Zm10.589,-3.388c0.015,-0.135 0.045,-0.344 0.045,-0.616c0,-1.334 -0.629,-3.418 -2.999,-3.418c-2.116,0 -3.404,1.725 -3.404,3.913c0,2.193 1.333,3.66 3.57,3.66c1.154,0 1.949,-0.239 2.414,-0.45l-0.224,-0.943c-0.495,0.211 -1.065,0.375 -2.01,0.375c-1.321,0 -2.462,-0.734 -2.492,-2.521l5.1,0Zm-5.085,-0.944c0.106,-0.916 0.692,-2.146 2.026,-2.146c1.486,0 1.845,1.304 1.832,2.146l-3.858,0Zm11.385,4.332l0,-6.254l1.755,0l0,-1.003l-1.755,0l0,-0.389c0,-1.111 0.285,-2.104 1.41,-2.104c0.375,0 0.645,0.076 0.84,0.166l0.18,-1.017c-0.255,-0.106 -0.66,-0.211 -1.125,-0.211c-0.616,0 -1.276,0.195 -1.769,0.674c-0.614,0.584 -0.839,1.515 -0.839,2.537l0,0.344l-1.019,0l0,1.003l1.019,0l0,6.254l1.303,0Zm5.82,-7.422c-2.009,0 -3.597,1.422 -3.597,3.854c0,2.297 1.511,3.734 3.478,3.734c1.756,0 3.613,-1.168 3.613,-3.853c0,-2.223 -1.407,-3.735 -3.494,-3.735m-0.029,0.989c1.561,0 2.176,1.56 2.176,2.791c0,1.635 -0.946,2.82 -2.205,2.82c-1.291,0 -2.207,-1.199 -2.207,-2.791c0,-1.381 0.675,-2.82 2.236,-2.82m5.191,6.433l1.303,0l0,-3.869c0,-0.224 0.029,-0.435 0.061,-0.615c0.179,-0.99 0.84,-1.695 1.769,-1.695c0.18,0 0.315,0.015 0.449,0.045l0,-1.243c-0.119,-0.031 -0.224,-0.045 -0.375,-0.045c-0.884,0 -1.679,0.614 -2.009,1.588l-0.06,0l-0.045,-1.423l-1.153,0c0.045,0.675 0.06,1.41 0.06,2.265l0,4.992Zm8.129,0l1.304,0l0,-10.107l-1.304,0l0,10.107Zm3.691,0l1.318,0l0,-4.363c0,-0.227 0.03,-0.451 0.09,-0.615c0.226,-0.737 0.899,-1.352 1.77,-1.352c1.247,0 1.682,0.977 1.682,2.147l0,4.183l1.318,0l0,-4.334c0,-2.488 -1.558,-3.088 -2.564,-3.088c-1.201,0 -2.041,0.674 -2.4,1.364l-0.032,0l-0.074,-1.199l-1.168,0c0.045,0.599 0.06,1.214 0.06,1.964l0,5.293Zm8.565,-8.998l0,1.741l-1.125,0l0,1.003l1.125,0l0,3.961c0,0.856 0.134,1.5 0.509,1.891c0.313,0.359 0.81,0.553 1.424,0.553c0.511,0 0.915,-0.075 1.171,-0.178l-0.061,-0.99c-0.165,0.045 -0.42,0.09 -0.765,0.09c-0.735,0 -0.991,-0.51 -0.991,-1.411l0,-3.916l1.891,0l0,-1.003l-1.891,0l0,-2.084l-1.287,0.343Zm10.408,5.61c0.015,-0.135 0.045,-0.344 0.045,-0.616c0,-1.334 -0.629,-3.418 -3,-3.418c-2.115,0 -3.403,1.725 -3.403,3.913c0,2.193 1.333,3.66 3.569,3.66c1.155,0 1.95,-0.239 2.414,-0.45l-0.224,-0.943c-0.494,0.211 -1.065,0.375 -2.01,0.375c-1.32,0 -2.461,-0.734 -2.491,-2.521l5.1,0Zm-5.086,-0.944c0.106,-0.916 0.691,-2.146 2.027,-2.146c1.486,0 1.847,1.304 1.831,2.146l-3.858,0Zm11.868,-2.925l-0.061,1.093l-0.03,0c-0.316,-0.599 -1.005,-1.258 -2.265,-1.258c-1.666,0 -3.269,1.393 -3.269,3.854c0,2.012 1.289,3.539 3.088,3.539c1.126,0 1.906,-0.539 2.312,-1.213l0.029,0l0,0.809c0,1.83 -0.99,2.537 -2.341,2.537c-0.9,0 -1.65,-0.272 -2.129,-0.57l-0.33,1.003c0.584,0.391 1.544,0.6 2.414,0.6c0.916,0 1.936,-0.209 2.641,-0.869c0.704,-0.629 1.034,-1.65 1.034,-3.315l0,-4.216c0,-0.883 0.03,-1.469 0.06,-1.994l-1.153,0Zm-0.209,4.169c0,0.227 -0.032,0.481 -0.107,0.706c-0.285,0.839 -1.02,1.351 -1.83,1.351c-1.427,0 -2.145,-1.185 -2.145,-2.611c0,-1.68 0.899,-2.746 2.16,-2.746c0.96,0 1.605,0.629 1.845,1.394c0.061,0.182 0.077,0.375 0.077,0.602l0,1.304Zm3.403,3.088l1.304,0l0,-3.869c0,-0.224 0.03,-0.435 0.06,-0.615c0.18,-0.99 0.84,-1.695 1.77,-1.695c0.179,0 0.315,0.015 0.45,0.045l0,-1.243c-0.12,-0.031 -0.226,-0.045 -0.375,-0.045c-0.885,0 -1.681,0.614 -2.01,1.588l-0.059,0l-0.045,-1.423l-1.155,0c0.045,0.675 0.06,1.41 0.06,2.265l0,4.992Zm10.049,0c-0.09,-0.494 -0.12,-1.109 -0.12,-1.738l0,-2.715c0,-1.455 -0.539,-2.969 -2.759,-2.969c-0.916,0 -1.786,0.254 -2.385,0.645l0.299,0.869c0.511,-0.33 1.215,-0.541 1.89,-0.541c1.486,0 1.651,1.08 1.651,1.682l0,0.15c-2.806,-0.015 -4.365,0.943 -4.365,2.697c0,1.053 0.749,2.086 2.219,2.086c1.036,0 1.816,-0.509 2.221,-1.078l0.045,0l0.106,0.912l1.198,0Zm-1.393,-2.443c0,0.135 -0.031,0.285 -0.076,0.42c-0.21,0.617 -0.81,1.217 -1.756,1.217c-0.675,0 -1.245,-0.407 -1.245,-1.262c0,-1.41 1.636,-1.666 3.077,-1.637l0,1.262Zm3.644,-6.555l0,1.741l-1.125,0l0,1.003l1.125,0l0,3.961c0,0.856 0.135,1.5 0.51,1.891c0.314,0.359 0.809,0.553 1.423,0.553c0.511,0 0.916,-0.075 1.17,-0.178l-0.058,-0.99c-0.166,0.045 -0.421,0.09 -0.766,0.09c-0.734,0 -0.99,-0.51 -0.99,-1.411l0,-3.916l1.89,0l0,-1.003l-1.89,0l0,-2.084l-1.289,0.343Zm5.984,1.741l-1.318,0l0,7.258l1.318,0l0,-7.258Zm-0.66,-2.866c-0.479,0 -0.824,0.362 -0.824,0.825c0,0.451 0.33,0.81 0.795,0.81c0.524,0 0.853,-0.359 0.838,-0.81c0,-0.463 -0.314,-0.825 -0.809,-0.825m1.951,2.866l2.76,7.257l1.26,0l2.848,-7.257l-1.38,0l-1.41,4.08c-0.239,0.66 -0.449,1.259 -0.614,1.861l-0.045,0c-0.149,-0.602 -0.345,-1.201 -0.585,-1.861l-1.424,-4.08l-1.41,0Zm13.798,3.869c0.015,-0.135 0.045,-0.344 0.045,-0.616c0,-1.334 -0.629,-3.418 -2.999,-3.418c-2.116,0 -3.404,1.725 -3.404,3.913c0,2.193 1.333,3.66 3.569,3.66c1.156,0 1.951,-0.239 2.415,-0.45l-0.225,-0.943c-0.494,0.211 -1.064,0.375 -2.009,0.375c-1.321,0 -2.462,-0.734 -2.492,-2.521l5.1,0Zm-5.085,-0.944c0.105,-0.916 0.691,-2.146 2.026,-2.146c1.486,0 1.846,1.304 1.831,2.146l-3.857,0Z" style="fill:#1d1d1b;fill-rule:nonzero;"></path><path d="M47.01,23.827l6.767,-4.1l-24.996,0.008c-2.873,-2.654 -5.372,-5.219 -7.492,-7.552l43.246,0.057l4.713,-4.186l-51.54,0c-3.348,-4.056 -5.065,-6.726 -5.065,-6.726c0,0 -1.675,5.152 0.901,13.525c1.74,5.653 8.196,12.679 15.845,19.288c3.449,-2.224 6.691,-4.24 9.619,-5.963c-1.952,-1.433 -3.794,-2.885 -5.536,-4.334l13.538,-0.017Z" style="fill:#c51a1b;fill-rule:nonzero;"></path><path d="M53.76,40.021c-3.426,1.789 -6.905,3.677 -10.166,5.232c16.584,12.364 26.496,25.76 26.496,25.76c0,0 1.2,-14.18 -16.33,-30.992" style="fill:#c51a1b;fill-rule:nonzero;"></path><path d="M78.482,-0.436c0,0 -0.265,4.591 -7.042,10.819c-17.002,15.628 -27.135,16.316 -54.614,36.581c-28.105,20.728 -9.617,42.935 -9.617,42.935c0,0 -7.357,-11.009 2.117,-24.091l51.802,0l-3.457,-4.106l-44.856,-0.013c2.796,-2.93 5.742,-5.393 8.83,-7.562l27.701,0.01l-4.985,-4.167l-16.116,0.018c9.095,-5.142 19.216,-8.999 30.143,-15.39c16.98,-9.93 20.094,-23.184 20.094,-23.184c0,0 0.515,-2.406 0.515,-5.325c0,-2.923 -0.515,-6.525 -0.515,-6.525" style="fill:#878787;fill-rule:nonzero;"></path></g></svg>